#!OML:ASF F:\VICON\USERDATA\INSTALL\rory3\rory3.ASF
:FULLY-SPECIFIED
:DEGREES
2088
root -14.4109 17.573 14.3134 183.628 -38.325 175.916
lowerback 10.6261 -3.65456 -10.4244
upperback 0.242519 -6.16785 0.4134
thorax -4.56245 -2.84405 7.11973
lowerneck 1.64415 -11.722 -13.9401
upperneck 33.4245 -30.935 15.5123
head 16.8523 -15.7642 3.32552
rclavicle 5.64051e-014 -7.55382e-015
rhumerus -40.7233 -17.2288 -71.1983
rradius 35.4714
rwrist 2.22833
rhand -17.2823 6.98009
rfingers 7.12502
rthumb 8.96296 -22.8095
lclavicle 5.64051e-014 -7.55382e-015
lhumerus -35.4257 9.08614 72.1691
lradius 33.4622
lwrist -6.20736
lhand -19.1261 29.6653
lfingers 7.12502
lthumb 7.18346 59.5234
rfemur -10.948 8.88598 21.8093
rtibia 43.6277
rfoot -17.7737 15.938
rtoes 15.7875
lfemur -10.976 -6.86127 -18.3452
ltibia 24.3957
lfoot -1.24553 -37.5605
ltoes 20.0404
2089
root -14.3692 17.5613 14.3226 183.791 -38.9732 175.763
lowerback 10.6044 -3.5582 -10.338
upperback 0.237062 -6.02914 0.372841
thorax -4.59604 -2.77522 7.01292
lowerneck 1.71428 -11.7607 -14.0882
upperneck 33.4742 -31.0304 15.6374
head 16.9557 -15.802 3.37786
rclavicle -2.14439e-014 -1.88845e-014
rhumerus -40.7665 -17.1743 -71.2489
rradius 35.7823
rwrist 2.11181
rhand -17.2941 6.96998
rfingers 7.12502
rthumb 8.95159 -22.8201
lclavicle -2.14439e-014 -1.88845e-014
lhumerus -35.4571 8.80098 72.2796
lradius 33.5441
lwrist -5.71143
lhand -19.4749 29.9743
lfingers 7.12502
lthumb 6.84671 59.8436
rfemur -10.5932 9.12347 21.9
rtibia 42.7324
rfoot -18.3576 14.8497
rtoes 15.5401
lfemur -11.4662 -7.00506 -18.3099
ltibia 24.7578
lfoot 0.528314 -37.9782
ltoes 22.8777
2090
root -14.326 17.5465 14.3331 183.767 -39.6801 175.75
lowerback 10.665 -3.46476 -10.1277
upperback 0.280138 -5.88639 0.343042
thorax -4.6348 -2.70904 6.8531
lowerneck 1.83118 -11.8067 -14.1969
upperneck 33.4915 -31.1249 15.7629
head 17.0238 -15.839 3.43247
rclavicle 5.94118e-014 -2.8625e-014
rhumerus -40.7282 -17.0909 -71.3383
rradius 36.0836
rwrist 2.15502
rhand -17.0451 6.36379
rfingers 7.12502
rthumb 9.19184 -23.4159
lclavicle 5.94118e-014 -2.8625e-014
lhumerus -35.3845 8.81717 72.1849
lradius 33.4119
lwrist -6.17556
lhand -18.7253 28.7648
lfingers 7.12502
lthumb 7.57035 58.6093
rfemur -10.0913 9.44042 22.1479
rtibia 41.8513
rfoot -19.0041 13.5558
rtoes 15.9133
lfemur -11.8035 -7.30353 -18.1605
ltibia 24.9991
lfoot 1.678 -38.2324
ltoes 24.5116
2091
root -14.2802 17.5364 14.351 183.933 -40.4449 175.581
lowerback 10.6883 -3.40868 -10.0012
upperback 0.337203 -5.79946 0.305944
thorax -4.61921 -2.67295 6.73325
lowerneck 1.80045 -11.8848 -14.2607
upperneck 33.5668 -31.2011 15.7829
head 17.1125 -15.8484 3.42769
rclavicle -6.20208e-014 3.97569e-016
rhumerus -40.4805 -17.0431 -71.4489
rradius 36.2205
rwrist 2.44251
rhand -16.8975 5.64392
rfingers 7.12502
rthumb 9.33423 -24.1294
lclavicle -6.20208e-014 3.97569e-016
lhumerus -35.2728 8.74765 72.2153
lradius 33.4719
lwrist -6.34611
lhand -18.0654 28.0174
lfingers 7.12502
lthumb 8.2072 57.838
rfemur -9.74398 9.44996 22.2618
rtibia 41.0157
rfoot -19.5294 12.6745
rtoes 15.8609
lfemur -12.2174 -7.75683 -18.1479
ltibia 25.1208
lfoot 2.34085 -38.3415
ltoes 25.3441
2092
root -14.2323 17.5368 14.3707 184.316 -41.2155 175.254
lowerback 10.668 -3.37129 -9.96971
upperback 0.360635 -5.7451 0.26969
thorax -4.59968 -2.64951 6.66834
lowerneck 1.61058 -11.981 -14.3702
upperneck 33.7229 -31.2914 15.7528
head 17.2807 -15.8522 3.38439
rclavicle 1.26129e-013 -2.48481e-014
rhumerus -40.2976 -16.8703 -71.5419
rradius 36.3312
rwrist 2.5101
rhand -17.0935 5.78691
rfingers 7.12502
rthumb 9.14511 -23.9948
lclavicle 1.26129e-013 -2.48481e-014
lhumerus -35.1694 8.56448 72.3791
lradius 33.6452
lwrist -6.02444
lhand -17.8813 27.9517
lfingers 7.12502
lthumb 8.3849 57.7653
rfemur -9.5425 9.60327 22.3016
rtibia 40.231
rfoot -19.7382 11.9391
rtoes 15.7742
lfemur -12.7225 -8.14256 -18.2274
ltibia 25.1663
lfoot 3.65654 -38.4918
ltoes 27.0436
2093
root -14.1832 17.5503 14.3869 184.679 -41.9649 174.955
lowerback 10.6546 -3.30131 -9.93978
upperback 0.407103 -5.64594 0.260038
thorax -4.56449 -2.60561 6.62719
lowerneck 1.30147 -12.0816 -14.3782
upperneck 33.8759 -31.2434 15.621
head 17.3881 -15.7741 3.31264
rclavicle -2.2736e-014 -3.16068e-014
rhumerus -40.1812 -16.6541 -71.5948
rradius 36.5081
rwrist 2.29232
rhand -17.362 6.40478
rfingers 7.12502
rthumb 8.88599 -23.3881
lclavicle -2.2736e-014 -3.16068e-014
lhumerus -34.9428 8.60467 72.522
lradius 33.6155
lwrist -5.91844
lhand -17.4757 27.4453
lfingers 7.12502
lthumb 8.77632 57.2429
rfemur -9.22542 10.3561 22.4817
rtibia 39.4941
rfoot -20.1171 10.2738
rtoes 14.3336
lfemur -13.202 -8.3644 -18.27
ltibia 25.1654
lfoot 5.27162 -38.6612
ltoes 28.6875
2094
root -14.1347 17.5612 14.4015 184.945 -42.6857 174.81
lowerback 10.6227 -3.19718 -9.77674
upperback 0.380164 -5.48582 0.231957
thorax -4.62202 -2.52507 6.48817
lowerneck 1.38675 -12.0745 -14.162
upperneck 33.8679 -30.9868 15.4949
head 17.2198 -15.6356 3.32195
rclavicle -1.09332e-014 1.07344e-014
rhumerus -40.1524 -16.7245 -71.599
rradius 36.5803
rwrist 2.16116
rhand -17.4809 6.73505
rfingers 7.12502
rthumb 8.77127 -23.0627
lclavicle -1.09332e-014 1.07344e-014
lhumerus -34.8182 8.62629 72.619
lradius 33.5389
lwrist -6.03106
lhand -17.1996 27.3156
lfingers 7.12502
lthumb 9.04271 57.1018
rfemur -9.00018 10.8046 22.7136
rtibia 38.8155
rfoot -20.6123 8.52713
rtoes 12.1291
lfemur -13.6695 -8.53567 -18.1974
ltibia 25.0804
lfoot 7.10035 -38.6669
ltoes 30.2843
2095
root -14.0872 17.5639 14.4169 185.064 -43.3895 174.822
lowerback 10.6521 -3.09621 -9.47422
upperback 0.324247 -5.31907 0.219443
thorax -4.7554 -2.43828 6.29364
lowerneck 1.55883 -12.0589 -14.0261
upperneck 33.9222 -30.8599 15.4164
head 17.1321 -15.5732 3.33291
rclavicle 6.60959e-014 -1.51076e-014
rhumerus -40.0528 -16.8139 -71.661
rradius 36.4831
rwrist 2.14367
rhand -17.9154 6.86923
rfingers 7.12502
rthumb 8.352 -22.9457
lclavicle 6.60959e-014 -1.51076e-014
lhumerus -34.7763 8.60993 72.7285
lradius 33.4845
lwrist -6.29757
lhand -17.1778 27.4966
lfingers 7.12502
lthumb 9.06378 57.2819
rfemur -8.89991 10.512 22.9492
rtibia 38.1864
rfoot -20.8203 7.64382
rtoes 11.8211
lfemur -14.0516 -8.80039 -18.0095
ltibia 24.9257
lfoot 8.62307 -38.5093
ltoes 31.1937
2096
root -14.0378 17.5684 14.4338 185.33 -44.1234 174.569
lowerback 10.7443 -3.02355 -9.31945
upperback 0.32267 -5.21755 0.159834
thorax -4.84537 -2.38708 6.14061
lowerneck 1.46658 -12.1038 -13.9674
upperneck 34.1333 -30.866 15.2801
head 17.2235 -15.5473 3.26148
rclavicle 4.57205e-014 2.72335e-014
rhumerus -39.7364 -16.6595 -71.8577
rradius 36.2625
rwrist 2.13537
rhand -18.4274 7.04399
rfingers 7.12502
rthumb 7.85782 -22.79
lclavicle 4.57205e-014 2.72335e-014
lhumerus -34.6896 8.65363 72.8471
lradius 33.4997
lwrist -6.49654
lhand -17.235 27.3776
lfingers 7.12502
lthumb 9.00859 57.1653
rfemur -8.83642 9.87348 22.9873
rtibia 37.6195
rfoot -20.6903 7.22279
rtoes 14.0207
lfemur -14.3807 -9.05443 -18.0239
ltibia 24.7633
lfoot 9.75514 -38.3955
ltoes 31.0546
2097
root -13.9863 17.5724 14.4533 185.661 -44.8384 174.175
lowerback 10.8903 -2.94577 -9.25054
upperback 0.319976 -5.12929 0.0582437
thorax -4.96061 -2.34011 5.99649
lowerneck 1.5289 -12.1051 -13.9091
upperneck 34.1862 -30.8153 15.2904
head 17.2201 -15.5082 3.28298
rclavicle 3.28492e-014 -1.45113e-014
rhumerus -39.5102 -16.5213 -72.0268
rradius 36.2241
rwrist 2.05273
rhand -18.2777 7.31134
rfingers 7.12502
rthumb 8.00233 -22.5172
lclavicle 3.28492e-014 -1.45113e-014
lhumerus -34.5977 8.65355 72.926
lradius 33.5014
lwrist -6.59236
lhand -17.1979 27.4061
lfingers 7.12502
lthumb 9.04434 57.1922
rfemur -8.79009 9.21736 22.898
rtibia 37.0911
rfoot -20.4482 6.95599
rtoes 16.8061
lfemur -14.6626 -9.21687 -18.1454
ltibia 24.5977
lfoot 11.2586 -38.1646
ltoes 31.3616
2098
root -13.9346 17.5786 14.4737 185.911 -45.5711 173.94
lowerback 11.0041 -2.88532 -9.08128
upperback 0.316043 -5.04234 0.0211932
thorax -5.0605 -2.29579 5.86194
lowerneck 1.60348 -12.0926 -13.9083
upperneck 34.2273 -30.7514 15.3296
head 17.2241 -15.4691 3.32777
rclavicle 1.7754e-014 2.3059e-014
rhumerus -39.4265 -16.5881 -72.0461
rradius 36.4736
rwrist 2.09435
rhand -17.8467 7.44138
rfingers 7.12502
rthumb 8.41828 -22.3708
lclavicle 1.7754e-014 2.3059e-014
lhumerus -34.4404 8.61106 73.1018
lradius 33.4029
lwrist -6.51678
lhand -16.8654 27.9759
lfingers 7.12502
lthumb 9.36517 57.7478
rfemur -8.71652 8.61444 22.8957
rtibia 36.5812
rfoot -20.5992 6.44713
rtoes 16.8441
lfemur -14.9743 -9.35675 -18.1441
ltibia 24.4009
lfoot 12.3677 -37.9758
ltoes 31.1555
2099
root -13.8843 17.5896 14.4971 186.159 -46.3452 173.871
lowerback 10.9995 -2.84961 -8.73311
upperback 0.308537 -4.94716 0.0429415
thorax -5.10737 -2.25318 5.67928
lowerneck 1.64833 -12.1421 -13.8706
upperneck 34.1782 -30.6391 15.2865
head 17.1392 -15.3979 3.34674
rclavicle 7.51655e-015 1.0138e-014
rhumerus -39.3062 -16.6849 -72.0186
rradius 36.719
rwrist 2.19792
rhand -17.7884 7.44221
rfingers 7.12502
rthumb 8.47451 -22.3678
lclavicle 7.51655e-015 1.0138e-014
lhumerus -34.2666 8.66599 73.3558
lradius 33.3358
lwrist -6.49993
lhand -16.25 28.0706
lfingers 7.12502
lthumb 9.95898 57.8151
rfemur -8.69951 8.01741 22.9839
rtibia 36.0263
rfoot -20.9795 5.69764
rtoes 13.9593
lfemur -15.4694 -9.5346 -18.0078
ltibia 24.2755
lfoot 12.4945 -37.8429
ltoes 29.388
2100
root -13.8309 17.6016 14.5173 186.266 -47.1039 173.989
lowerback 11.0468 -2.81761 -8.32187
upperback 0.251249 -4.8513 0.115368
thorax -5.23587 -2.20466 5.52095
lowerneck 1.62316 -12.1961 -13.737
upperneck 34.2612 -30.4575 15.0045
head 17.0398 -15.2955 3.26748
rclavicle 1.15407e-013 5.31749e-015
rhumerus -38.9392 -16.7554 -71.9748
rradius 36.3102
rwrist 2.41886
rhand -17.946 7.85076
rfingers 7.12502
rthumb 8.32243 -21.9653
lclavicle 1.15407e-013 5.31749e-015
lhumerus -34.235 9.03839 73.4702
lradius 33.2931
lwrist -6.76838
lhand -16.531 27.8033
lfingers 7.12502
lthumb 9.68783 57.5605
rfemur -8.72012 7.49046 23.215
rtibia 35.3998
rfoot -21.0445 5.16239
rtoes 12.6483
lfemur -16.0014 -9.58694 -17.7165
ltibia 24.2537
lfoot 12.1997 -37.8709
ltoes 27.4302
2101
root -13.7749 17.6129 14.5307 186.11 -47.7996 174.245
lowerback 11.1835 -2.75325 -7.91217
upperback 0.230784 -4.7199 0.189164
thorax -5.37925 -2.14024 5.36476
lowerneck 1.56718 -12.1838 -13.6388
upperneck 34.4779 -30.312 14.7776
head 17.0562 -15.2155 3.1981
rclavicle -6.9233e-015 1.61513e-014
rhumerus -38.6457 -16.874 -71.9747
rradius 35.6906
rwrist 2.63424
rhand -18.0474 8.27751
rfingers 7.12502
rthumb 8.22458 -21.5424
lclavicle -6.9233e-015 1.61513e-014
lhumerus -34.2661 9.12332 73.6469
lradius 33.3008
lwrist -6.59223
lhand -17.3641 27.891
lfingers 7.12502
lthumb 8.88397 57.684
rfemur -8.58476 7.14247 23.5473
rtibia 34.7619
rfoot -20.9158 5.03795
rtoes 13.9384
lfemur -16.3301 -9.66555 -17.3353
ltibia 24.2437
lfoot 11.2857 -37.9959
ltoes 27.399
